#!OML:ASF I:\Actors\actors\Patient Classification 2\Patient 1\Session 1\actor1.ASF
:FULLY-SPECIFIED
:DEGREES
301
root -1.58113 18.554 3.8414 15.638 -36.9757 -5.2941
lowerback 23.2356 -4.85157 -7.36007
upperback 7.31215 -8.40343 -4.82985
thorax -4.50862 -4.16065 1.11829
lowerneck -12.1513 8.74034 6.89596
upperneck 26.4335 11.5172 -4.37209
head 11.2422 5.22814 -1.20446
rclavicle -2.22639e-014 3.18055e-014
rhumerus 2.64379 32.2779 -79.5099
rradius 114.052
rwrist -3.12316
rhand -32.9612 -35.7091
rfingers 7.12502
rthumb -6.17679 -65.5991
lclavicle -2.22639e-014 3.18055e-014
lhumerus 17.6175 -25.6237 81.6556
lradius 63.437
lwrist 17.5278
lhand -29.2379 -73.3371
lfingers 7.12502
lthumb -2.58147 -43.373
rfemur -26.4196 17.1542 17.8808
rtibia 22.3397
rfoot -7.59786 4.1084
rtoes -9.42737
lfemur -16.0737 20.4011 -10.6047
ltibia 30.0204
lfoot -26.5914 17.842
ltoes -55.0716
302
root -1.58345 18.5473 3.81063 16.0368 -36.7791 -5.45079
lowerback 23.475 -4.84145 -7.37982
upperback 7.33165 -8.41458 -4.83002
thorax -4.60393 -4.16042 1.15349
lowerneck -12.0618 8.90653 7.03267
upperneck 26.2816 11.7896 -4.63262
head 11.2135 5.33794 -1.28329
rclavicle -3.65764e-014 -6.36111e-015
rhumerus 2.80152 32.8186 -79.6739
rradius 113.673
rwrist -4.52623
rhand -32.4221 -36.0226
rfingers 7.12502
rthumb -5.65628 -65.9271
lclavicle -3.65764e-014 -6.36111e-015
lhumerus 17.9404 -25.2599 81.5322
lradius 63.0302
lwrist 17.2097
lhand -29.2055 -73.0339
lfingers 7.12502
lthumb -2.5502 -43.0694
rfemur -26.8953 16.9997 18.0104
rtibia 22.459
rfoot -7.57879 4.12284
rtoes -9.39074
lfemur -16.7203 20.8135 -10.4829
ltibia 30.3313
lfoot -26.3333 17.3774
ltoes -55.2298
303
root -1.58217 18.5419 3.79044 16.3718 -36.4483 -5.57266
lowerback 23.6022 -4.88425 -7.08549
upperback 7.40603 -8.41267 -4.8836
thorax -4.63884 -4.1575 0.945538
lowerneck -11.9788 8.98071 7.08077
upperneck 26.0772 11.9251 -4.7965
head 11.1441 5.39175 -1.33409
rclavicle 3.65764e-014 1.90833e-014
rhumerus 2.75393 33.5675 -79.9502
rradius 113.348
rwrist -6.31149
rhand -31.9841 -35.911
rfingers 7.12502
rthumb -5.23338 -65.8264
lclavicle 3.65764e-014 1.90833e-014
lhumerus 17.8957 -25.0454 81.3365
lradius 62.7573
lwrist 16.8044
lhand -29.2416 -72.4616
lfingers 7.12502
lthumb -2.58499 -42.4975
rfemur -27.2815 16.8553 18.0873
rtibia 22.537
rfoot -7.65467 4.07503
rtoes -8.81105
lfemur -17.3512 20.9942 -10.3943
ltibia 30.6447
lfoot -26.1707 17.0606
ltoes -55.4348
304
root -1.58519 18.5378 3.77359 16.6062 -36.1314 -5.60339
lowerback 23.6701 -4.83232 -6.83349
upperback 7.49434 -8.29209 -4.93078
thorax -4.62702 -4.1 0.73057
lowerneck -11.9569 8.97703 7.15355
upperneck 25.9061 11.9273 -4.89373
head 11.0875 5.39497 -1.38168
rclavicle -2.36951e-013 -1.27222e-014
rhumerus 2.34288 34.3564 -80.2607
rradius 113.196
rwrist -8.12289
rhand -31.4257 -35.5061
rfingers 7.12502
rthumb -4.69424 -65.4341
lclavicle -2.36951e-013 -1.27222e-014
lhumerus 17.514 -25.0253 81.0722
lradius 62.639
lwrist 16.6401
lhand -29.1277 -71.7909
lfingers 7.12502
lthumb -2.47502 -41.8255
rfemur -27.5768 16.7968 18.0822
rtibia 22.5702
rfoot -7.76459 3.93229
rtoes -8.57169
lfemur -17.9006 21.1046 -10.3841
ltibia 30.9226
lfoot -25.9518 16.8768
ltoes -55.6926
305
root -1.5931 18.5358 3.75455 16.7914 -35.8072 -5.58115
lowerback 23.7282 -4.66933 -6.70419
upperback 7.55176 -8.05068 -4.88896
thorax -4.61678 -3.98381 0.646392
lowerneck -11.9705 8.89882 7.23085
upperneck 25.8255 11.8252 -4.98565
head 11.0645 5.35003 -1.44134
rclavicle 8.5875e-014 1.24042e-013
rhumerus 1.67298 35.0453 -80.5823
rradius 113.433
rwrist -10.8386
rhand -31.1944 -37.5969
rfingers 7.12502
rthumb -4.47081 -67.5297
lclavicle 8.5875e-014 1.24042e-013
lhumerus 16.8203 -25.1116 80.8887
lradius 62.6004
lwrist 16.6798
lhand -28.9202 -70.7943
lfingers 7.12502
lthumb -2.27467 -40.8267
rfemur -27.8365 16.8328 18.0344
rtibia 22.5814
rfoot -7.90691 3.65857
rtoes -8.58707
lfemur -18.3882 21.0629 -10.3893
ltibia 31.1253
lfoot -25.7533 16.7777
ltoes -55.7968
306
root -1.60012 18.537 3.74052 16.8726 -35.4726 -5.45905
lowerback 23.7707 -4.46752 -6.54975
upperback 7.60126 -7.75308 -4.84196
thorax -4.61191 -3.8401 0.538399
lowerneck -11.9861 8.7583 7.29586
upperneck 25.8304 11.6439 -5.084
head 11.0676 5.26563 -1.51268
rclavicle 5.725e-014 -1.27222e-014
rhumerus 0.9931 35.7822 -81.0784
rradius 113.43
rwrist -13.1008
rhand -30.4923 -38.4198
rfingers 7.12502
rthumb -3.7929 -68.3658
lclavicle 5.725e-014 -1.27222e-014
lhumerus 15.8071 -25.2317 80.773
lradius 62.6681
lwrist 16.6949
lhand -28.6391 -69.3394
lfingers 7.12502
lthumb -2.00312 -39.3691
rfemur -28.0282 16.8888 17.8863
rtibia 22.5833
rfoot -8.06848 3.36838
rtoes -8.38515
lfemur -18.7675 20.776 -10.471
ltibia 31.2523
lfoot -25.7173 16.8288
ltoes -55.7617
307
root -1.60678 18.5399 3.73363 16.8519 -35.1475 -5.30514
lowerback 23.9531 -4.21969 -6.39854
upperback 7.58498 -7.40989 -4.73824
thorax -4.74152 -3.66776 0.495836
lowerneck -12.0006 8.58362 7.31182
upperneck 25.9203 11.4278 -5.17465
head 11.0955 5.16006 -1.57854
rclavicle 1.28812e-013 -3.81667e-014
rhumerus 0.25577 36.5366 -81.5457
rradius 113.373
rwrist -15.6514
rhand -29.4909 -38.7984
rfingers 7.12502
rthumb -2.82584 -68.7594
lclavicle 1.28812e-013 -3.81667e-014
lhumerus 14.5041 -25.4921 80.6099
lradius 62.8246
lwrist 16.5708
lhand -28.1169 -67.8489
lfingers 7.12502
lthumb -1.49878 -37.8744
rfemur -28.0987 16.9515 17.7128
rtibia 22.5769
rfoot -8.24819 3.10668
rtoes -8.08951
lfemur -18.998 20.3919 -10.574
ltibia 31.3271
lfoot -25.6886 17.0672
ltoes -55.902
308
root -1.61371 18.5429 3.73038 16.7624 -34.8131 -5.15345
lowerback 23.9349 -3.9499 -6.2287
upperback 7.67414 -7.00637 -4.58892
thorax -4.65271 -3.47788 0.45219
lowerneck -12.09 8.3802 7.16016
upperneck 25.9811 11.1768 -5.15818
head 11.1056 5.0353 -1.58167
rclavicle -4.45278e-014 7.95139e-014
rhumerus -0.182584 37.3 -81.7242
rradius 113.31
rwrist -18.711
rhand -28.6457 -39.6677
rfingers 7.12502
rthumb -2.00954 -69.638
lclavicle -4.45278e-014 7.95139e-014
lhumerus 13.3217 -25.911 80.2122
lradius 62.8703
lwrist 16.2307
lhand -27.5579 -66.7027
lfingers 7.12502
lthumb -0.958922 -36.7251
rfemur -28.081 17.0192 17.5584
rtibia 22.5782
rfoot -8.44467 2.83599
rtoes -7.66606
lfemur -19.113 19.9443 -10.6465
ltibia 31.3585
lfoot -25.6313 17.3979
ltoes -56.1599
309
root -1.61757 18.5448 3.73034 16.6316 -34.4096 -4.97668
lowerback 24.0412 -3.67841 -5.98587
upperback 7.67021 -6.59871 -4.42005
thorax -4.73437 -3.27697 0.402333
lowerneck -12.1226 8.13775 6.99884
upperneck 26.0672 10.8665 -5.10012
head 11.1068 4.88864 -1.57926
rclavicle -2.54444e-014 2.54444e-014
rhumerus -0.65614 38.0274 -81.8723
rradius 113.21
rwrist -21.2263
rhand -28.2831 -40.9609
rfingers 7.12502
rthumb -1.65934 -70.9342
lclavicle -2.54444e-014 2.54444e-014
lhumerus 12.0604 -26.5191 79.7678
lradius 62.7282
lwrist 15.9327
lhand -27.2722 -65.8257
lfingers 7.12502
lthumb -0.683018 -35.847
rfemur -28.0391 17.0567 17.3915
rtibia 22.6121
rfoot -8.66349 2.54596
rtoes -7.10917
lfemur -19.1762 19.3151 -10.7133
ltibia 31.3524
lfoot -25.715 17.691
ltoes -56.1855
310
root -1.62446 18.5447 3.73222 16.4232 -34.1488 -4.83694
lowerback 24.3031 -3.35137 -5.83572
upperback 7.56228 -6.16033 -4.24952
thorax -4.99749 -3.05362 0.410786
lowerneck -11.9359 7.91659 7.04877
upperneck 26.0982 10.6087 -5.2746
head 11.0769 4.76407 -1.69495
rclavicle -1.28812e-013 2.70347e-014
rhumerus -1.33844 38.6926 -82.0972
rradius 113.18
rwrist -22.4382
rhand -28.2176 -42.1755
rfingers 7.12502
rthumb -1.59603 -72.1492
lclavicle -1.28812e-013 2.70347e-014
lhumerus 10.6779 -27.1663 79.315
lradius 62.4417
lwrist 15.8061
lhand -27.3465 -65.1627
lfingers 7.12502
lthumb -0.754773 -35.1843
rfemur -27.9235 17.2547 17.2556
rtibia 22.713
rfoot -8.9062 2.26056
rtoes -6.85207
lfemur -19.0463 18.8157 -10.725
ltibia 31.3209
lfoot -25.8647 17.8794
ltoes -56.0028
311
root -1.63776 18.5432 3.73478 16.1051 -34.1856 -4.69379
lowerback 24.6984 -2.91119 -5.92312
upperback 7.37451 -5.65376 -4.12604
thorax -5.39889 -2.79243 0.48897
lowerneck -12.0866 7.73727 6.88193
upperneck 26.5045 10.3748 -5.14302
head 11.2244 4.64904 -1.64858
rclavicle -3.18055e-015 1.11319e-014
rhumerus -2.13598 39.2238 -82.4296
rradius 113.257
rwrist -22.6986
rhand -28.2178 -43.0318
rfingers 7.12502
rthumb -1.59628 -73.0056
lclavicle -3.18055e-015 1.11319e-014
lhumerus 9.2896 -27.7511 78.8362
lradius 62.0431
lwrist 15.5757
lhand -27.668 -64.6792
lfingers 7.12502
lthumb -1.0653 -34.7022
rfemur -27.7432 17.6835 17.1033
rtibia 22.8992
rfoot -9.1451 2.03503
rtoes -6.90257
lfemur -18.6968 18.7123 -10.7457
ltibia 31.2727
lfoot -25.8962 17.998
ltoes -55.983
312
root -1.64881 18.5399 3.73967 15.7117 -34.2203 -4.48119
lowerback 24.995 -2.49246 -6.02453
upperback 7.24263 -5.17255 -4.06065
thorax -5.69607 -2.54854 0.504807
lowerneck -12.0127 7.5242 7.00142
upperneck 26.7637 10.0626 -5.13109
head 11.2924 4.52084 -1.71211
rclavicle 1.59028e-014 7.4743e-014
rhumerus -2.75594 39.4797 -82.6406
rradius 113.504
rwrist -22.7824
rhand -28.1603 -43.5652
rfingers 7.12502
rthumb -1.54072 -73.5394
lclavicle 1.59028e-014 7.4743e-014
lhumerus 8.2159 -28.3806 78.2588
lradius 61.6225
lwrist 15.273
lhand -27.7943 -64.4006
lfingers 7.12502
lthumb -1.18728 -34.4241
rfemur -27.5632 18.0497 16.9104
rtibia 23.2008
rfoot -9.39766 1.90181
rtoes -6.78664
lfemur -18.2829 18.7012 -10.8251
ltibia 31.1575
lfoot -25.8184 18.082
ltoes -56.113
313
root -1.65639 18.5351 3.74681 15.2841 -34.1908 -4.28203
lowerback 25.476 -2.13717 -6.14865
upperback 6.98065 -4.79893 -3.97071
thorax -6.22287 -2.34515 0.598779
lowerneck -11.8951 7.35232 7.04382
upperneck 27.2178 9.8089 -5.03333
head 11.421 4.41743 -1.7254
rclavicle -2.70347e-014 -2.70347e-014
rhumerus -3.51859 39.6812 -82.8593
rradius 113.974
rwrist -22.8966
rhand -28.1987 -43.9734
rfingers 7.12502
rthumb -1.57778 -73.9473
lclavicle -2.70347e-014 -2.70347e-014
lhumerus 7.09781 -29.0301 77.8766
lradius 61.393
lwrist 15.0285
lhand -27.811 -64.3396
lfingers 7.12502
lthumb -1.20336 -34.3633
rfemur -27.3009 18.2771 16.7793
rtibia 23.4709
rfoot -9.58317 1.84891
rtoes -6.65564
lfemur -17.8621 18.659 -10.8726
ltibia 31.099
lfoot -25.7765 18.0519
ltoes -56.0965
314
root -1.73845 18.5192 3.72356 14.577 -36.1914 -4.57688
lowerback 25.8497 -0.548398 -8.34354
upperback 6.88912 -3.3584 -3.65494
thorax -6.40809 -1.64177 1.7715
lowerneck -11.7157 7.22636 7.00235
upperneck 27.4827 9.67505 -5.07761
head 11.4771 4.34778 -1.76126
rclavicle -1.11319e-014 4.29375e-014
rhumerus -3.94949 39.8067 -82.8309
rradius 114.529
rwrist -22.8359
rhand -28.4155 -44.3068
rfingers 7.12502
rthumb -1.7872 -74.2791
lclavicle -1.11319e-014 4.29375e-014
lhumerus 6.36243 -29.6066 77.5295
lradius 61.4031
lwrist 14.9615
lhand -27.9035 -64.3709
lfingers 7.12502
lthumb -1.29276 -34.3951
rfemur -26.5297 20.565 17.0086
rtibia 23.73
rfoot -9.67941 1.80438
rtoes -6.50955
lfemur -16.0776 20.9389 -10.3013
ltibia 31.0526
lfoot -25.7744 17.4728
ltoes -56.1112
